<?xml version="1.0" standalone="no"?>
<svg xmlns:xlink="http://www.w3.org/1999/xlink" id="wave" style="transform:rotate(180deg); transition: 0.3s" viewBox="0 0 1440 490" version="1.1" xmlns="http://www.w3.org/2000/svg"><defs><linearGradient id="sw-gradient-0" x1="0" x2="0" y1="1" y2="0"><stop stop-color="rgba(41, 128, 184, 1)" offset="0%"/><stop stop-color="rgba(12, 77, 181, 1)" offset="100%"/></linearGradient></defs><path style="transform:translate(0, 0px); opacity:1" fill="url(#sw-gradient-0)" d="M0,441L120,400.2C240,359,480,278,720,228.7C960,180,1200,163,1440,171.5C1680,180,1920,212,2160,212.3C2400,212,2640,180,2880,204.2C3120,229,3360,310,3600,318.5C3840,327,4080,261,4320,236.8C4560,212,4800,229,5040,204.2C5280,180,5520,114,5760,130.7C6000,147,6240,245,6480,253.2C6720,261,6960,180,7200,147C7440,114,7680,131,7920,171.5C8160,212,8400,278,8640,277.7C8880,278,9120,212,9360,212.3C9600,212,9840,278,10080,318.5C10320,359,10560,376,10800,383.8C11040,392,11280,392,11520,375.7C11760,359,12000,327,12240,302.2C12480,278,12720,261,12960,277.7C13200,294,13440,343,13680,351.2C13920,359,14160,327,14400,318.5C14640,310,14880,327,15120,351.2C15360,376,15600,408,15840,408.3C16080,408,16320,376,16560,318.5C16800,261,17040,180,17160,138.8L17280,98L17280,490L17160,490C17040,490,16800,490,16560,490C16320,490,16080,490,15840,490C15600,490,15360,490,15120,490C14880,490,14640,490,14400,490C14160,490,13920,490,13680,490C13440,490,13200,490,12960,490C12720,490,12480,490,12240,490C12000,490,11760,490,11520,490C11280,490,11040,490,10800,490C10560,490,10320,490,10080,490C9840,490,9600,490,9360,490C9120,490,8880,490,8640,490C8400,490,8160,490,7920,490C7680,490,7440,490,7200,490C6960,490,6720,490,6480,490C6240,490,6000,490,5760,490C5520,490,5280,490,5040,490C4800,490,4560,490,4320,490C4080,490,3840,490,3600,490C3360,490,3120,490,2880,490C2640,490,2400,490,2160,490C1920,490,1680,490,1440,490C1200,490,960,490,720,490C480,490,240,490,120,490L0,490Z"/></svg>